<?xml version="1.0" encoding="UTF-8"?>
<svg version="1.1" xmlns="http://www.w3.org/2000/svg" width="512" height="512">
<path d="M0 0 C1.17362343 -0.0098568 1.17362343 -0.0098568 2.37095642 -0.01991272 C4.96939184 -0.03967486 7.56776914 -0.0513199 10.16625977 -0.0612793 C11.05536608 -0.06535482 11.94447239 -0.06943035 12.86052132 -0.07362938 C17.57400404 -0.0945108 22.28745755 -0.10879883 27.00097656 -0.11816406 C31.84950309 -0.12918275 36.69756485 -0.16352366 41.545928 -0.20333576 C45.28911637 -0.22961184 49.03219637 -0.23786601 52.77546883 -0.24144554 C54.56107759 -0.24628972 56.34668223 -0.25784117 58.13220024 -0.27648354 C71.05620783 -0.40294258 82.03531153 0.34161103 92.35375977 9.09106445 C100.6000374 17.41528422 103.17355621 27.07720658 105.42016602 38.17700195 C105.79574341 39.94278125 106.17207602 41.70840004 106.54907227 43.47387695 C107.27398293 46.93879405 107.99690087 50.40395007 108.68579102 53.8762207 C108.89896973 54.94102661 108.89896973 54.94102661 109.11645508 56.02734375 C109.45633838 58.43302899 109.43963917 60.75013632 109.42016602 63.17700195 C110.3983961 63.17415405 110.3983961 63.17415405 111.39638841 63.17124861 C150.05956168 63.05932632 188.72271401 62.97355306 227.38601651 62.92167531 C232.02972417 62.91542187 236.6734315 62.90895025 241.31713867 62.90234375 C242.70383988 62.90037642 242.70383988 62.90037642 244.11855526 62.89836935 C259.08185942 62.87662059 274.04506741 62.83720197 289.00831454 62.79123797 C304.36522535 62.74445862 319.72208583 62.71670343 335.07906497 62.70655948 C344.5530245 62.69970339 354.02671217 62.67805943 363.50058801 62.63741962 C369.99968463 62.61096299 376.49864098 62.60300756 382.99778752 62.60949507 C386.74595596 62.61269345 390.49364978 62.6078364 394.24173355 62.58097458 C398.31107151 62.55202433 402.37940414 62.5620881 406.44882202 62.57572937 C407.62588758 62.56116516 408.80295314 62.54660096 410.01568735 62.53159541 C418.2458983 62.60609667 425.15151089 64.20832004 431.32774866 69.95053214 C437.71358931 76.89590473 439.69227578 83.89738593 439.42016602 93.17700195 C438.99688602 95.68911951 438.49931249 98.18935585 437.94580078 100.67602539 C437.7874387 101.3968782 437.62907661 102.11773102 437.46591568 102.86042786 C436.93816254 105.254028 436.39990036 107.64513488 435.86157227 110.03637695 C435.48137224 111.75053459 435.10180485 113.46483264 434.7228241 115.17926025 C433.69856031 119.80299375 432.66483357 124.42455991 431.62846375 129.04559326 C430.76562022 132.89541298 429.90653181 136.74606687 429.04733849 140.59670258 C427.50323917 147.51672128 425.95738449 154.43633981 424.40548706 161.35461426 C421.83447767 172.81914853 419.29137729 184.28927235 416.78062439 195.76715088 C415.46137016 201.79584428 414.12877455 207.82155927 412.79163837 213.84630966 C411.8955645 217.88622352 411.0055755 221.92725134 410.13064575 225.97180176 C409.31102879 229.75919883 408.47360675 233.54223774 407.62307167 237.32280731 C407.31891576 238.68878674 407.02091795 240.05615737 406.73018456 241.42505646 C403.68867901 255.71139355 398.19229445 269.92934003 386.07641602 278.9152832 C375.68467323 285.54166349 365.12574316 288.34275754 352.87808228 288.29725647 C351.60857477 288.29853811 351.60857477 288.29853811 350.31342065 288.29984564 C347.48521119 288.30148918 344.6570614 288.2959975 341.82885742 288.29052734 C339.79844158 288.2902452 337.76802564 288.29040373 335.73760986 288.29096985 C330.22986741 288.29125677 324.72214674 288.28537692 319.21440935 288.27839589 C313.45685467 288.27214497 307.69929949 288.27155717 301.94174194 288.27037048 C291.04090221 288.26726231 280.14007251 288.25905582 269.23923719 288.24902099 C256.82821098 288.23784394 244.41718429 288.23234539 232.0061543 288.22732556 C206.47748598 288.21687279 180.94882656 288.19928326 155.42016602 288.17700195 C156.20063548 292.4499608 156.99644247 296.71992076 157.79516602 300.98950195 C158.01688477 302.20444336 158.23860352 303.41938477 158.46704102 304.67114258 C158.79575195 306.41621094 158.79575195 306.41621094 159.13110352 308.1965332 C159.42960205 309.80685425 159.42960205 309.80685425 159.73413086 311.44970703 C160.30676547 314.36978299 160.30676547 314.36978299 162.42016602 317.17700195 C166.35447505 318.4884383 170.09902251 318.31325277 174.19976807 318.30157471 C175.5621528 318.30368993 175.5621528 318.30368993 176.95206046 318.30584788 C180.00817614 318.30950995 183.06424568 318.30616044 186.12036133 318.30297852 C188.30646298 318.30437287 190.49256435 318.30627191 192.67866516 318.30863953 C197.39314236 318.31314135 202.10761085 318.31499272 206.82209015 318.31510162 C214.276171 318.31624036 221.73020214 318.32906687 229.18426514 318.34466553 C230.44144104 318.34723838 231.69861695 318.34981123 232.99388909 318.35246205 C235.5649567 318.35772876 238.13602427 318.36301425 240.70709181 318.36831808 C247.31733986 318.38169714 253.92758946 318.39397529 260.5378418 318.4050293 C261.53290342 318.40669964 261.53290342 318.40669964 262.5480673 318.40840372 C273.29375642 318.42597202 284.03940787 318.42884827 294.78510895 318.42717889 C305.81987488 318.42589922 316.85449601 318.44399043 327.88920856 318.47819686 C334.08391279 318.49667229 340.27833472 318.50598576 346.47306061 318.49372101 C352.30082151 318.48229496 358.12807688 318.49396374 363.95577049 318.52335548 C366.09429955 318.53000288 368.23287478 318.52811767 370.37138557 318.51705742 C373.29240561 318.503204 376.2117147 318.52006007 379.13262939 318.54449463 C379.97787462 318.53313925 380.82311984 318.52178387 381.69397855 318.51008439 C387.53267195 318.60498215 391.17885056 320.1181843 395.42016602 324.17700195 C398.50745742 328.4593739 399.00153699 332.48300391 398.83813477 337.6418457 C397.97748462 342.86205079 395.37066106 346.72090322 391.17016602 349.85668945 C387.87160919 351.44037157 385.25137663 351.68047616 381.60766602 351.86450195 C380.4462207 351.93024414 379.28477539 351.99598633 378.08813477 352.0637207 C377.20770508 352.10110352 376.32727539 352.13848633 375.42016602 352.17700195 C375.75016602 353.41450195 376.08016602 354.65200195 376.42016602 355.92700195 C379.33474462 369.32567628 376.90866389 381.95577207 370.01000977 393.7121582 C362.69181735 405.05805357 351.61727786 412.27433169 338.42016602 415.17700195 C327.77812204 416.0674211 317.03757412 416.26949838 307.42016602 411.17700195 C306.55133789 410.72969727 305.68250977 410.28239258 304.78735352 409.8215332 C293.19086712 403.36557884 285.56167769 393.6427942 281.48266602 380.92700195 C279.12684569 370.90749451 279.94844446 361.06388817 282.42016602 351.17700195 C267.24016602 351.17700195 252.06016602 351.17700195 236.42016602 351.17700195 C237.08016602 353.81700195 237.74016602 356.45700195 238.42016602 359.17700195 C239.73304308 374.1224281 236.89607319 387.2045577 227.42016602 399.17700195 C220.05017211 407.39039305 209.61624982 414.4017507 198.32055664 415.35400391 C183.25603764 415.76536099 171.76545676 414.55942292 159.42016602 405.17700195 C157.87329102 404.09418945 157.87329102 404.09418945 156.29516602 402.98950195 C148.34447423 396.09890241 142.25767091 383.64581316 141.42016602 373.17700195 C140.96482552 365.57281562 141.66159005 359.00203762 143.76391602 351.6730957 C144.54730091 349.12358862 144.54730091 349.12358862 144.42016602 346.17700195 C142.78945837 344.4416502 142.78945837 344.4416502 140.67016602 342.80200195 C132.61594927 336.00980157 128.47340936 328.38730768 126.51782227 318.11938477 C126.35972706 317.34043161 126.20163185 316.56147846 126.03874588 315.75892067 C125.50907838 313.13472603 124.9960028 310.50756123 124.48266602 307.88012695 C124.09464711 305.93983295 123.70559331 303.99974567 123.31561279 302.05984497 C122.4603568 297.79379694 121.61254433 293.52635599 120.7701416 289.25775146 C119.39881132 282.3099787 118.01048932 275.36566306 116.62036133 268.42163086 C114.47646087 257.70192386 112.34108654 246.98055133 110.21118164 236.25805664 C107.44155471 222.31549963 104.66958906 208.37341055 101.89477539 194.43188477 C101.69816031 193.44401348 101.50154524 192.4561422 101.29897213 191.43833542 C97.82684151 173.9940566 94.34908751 156.55090142 90.86896515 139.10821533 C88.60429751 127.75566812 86.34515566 116.40204471 84.09275222 105.04705775 C82.5275636 97.15782073 80.95772616 89.26951813 79.38433671 81.38191259 C78.46229754 76.75858087 77.54262016 72.13480817 76.62871552 67.50986099 C75.78320064 63.23120185 74.93152848 58.95381667 74.07494545 54.67736006 C73.76354362 53.11687551 73.45446104 51.55592611 73.14785576 49.99449205 C72.73119687 47.87430011 72.30634001 45.75591514 71.8793335 43.63778687 C71.64427471 42.45474157 71.40921593 41.27169628 71.16703415 40.05280113 C70.54379955 37.00740306 70.54379955 37.00740306 68.42016602 34.17700195 C65.41239045 33.71820566 65.41239045 33.71820566 61.81835938 33.79223633 C61.14002045 33.78686356 60.46168152 33.78149078 59.76278687 33.7759552 C58.28684783 33.76615954 56.81085108 33.76323845 55.33488274 33.76631165 C52.99222783 33.77078592 50.6503301 33.75679739 48.30775452 33.73791504 C43.32440434 33.70106917 38.3411323 33.68743313 33.35766602 33.67700195 C27.60530304 33.66489611 21.85330612 33.64310739 16.10110664 33.59700012 C13.80512392 33.58351689 11.50961399 33.58758709 9.21360779 33.59240723 C-7.37315672 33.5301505 -7.37315672 33.5301505 -13.73608398 28.45825195 C-14.17952148 27.87043945 -14.62295898 27.28262695 -15.07983398 26.67700195 C-15.54389648 26.08918945 -16.00795898 25.50137695 -16.48608398 24.89575195 C-19.01050943 20.92879768 -19.04664447 16.72408186 -18.57983398 12.17700195 C-15.39893508 3.16445506 -9.04781781 0.03277528 0 0 Z " fill="#1B1464" transform="translate(44.579833984375,48.822998046875)"/>
<path d="M0 0 C95.04 0 190.08 0 288 0 C286.87480282 9.0015774 286.87480282 9.0015774 286.13964844 12.43041992 C285.89338715 13.59041756 285.89338715 13.59041756 285.64215088 14.77384949 C285.46633484 15.58453384 285.2905188 16.3952182 285.109375 17.23046875 C284.92469666 18.09396439 284.74001831 18.95746002 284.54974365 19.84712219 C283.95357782 22.62806943 283.35206391 25.40782421 282.75 28.1875 C282.33395833 30.11978606 281.91794281 32.05207775 281.50195312 33.984375 C281.09023553 35.88940763 280.67813622 37.79435781 280.265625 39.69921875 C279.9823233 41.00900948 279.9823233 41.00900948 279.69329834 42.34526062 C278.03196678 49.96909067 276.22060582 57.55370673 274.3671875 65.1328125 C272.29374385 73.8438636 270.48883068 82.61730516 268.625 91.375 C263.28618155 116.4315182 263.28618155 116.4315182 260.56561279 128.59039307 C260.13907445 130.49950518 259.7171629 132.40964919 259.29541016 134.31982422 C255.07713755 153.04707167 255.07713755 153.04707167 250.5 156.5 C249.9121875 156.9640625 249.324375 157.428125 248.71875 157.90625 C245.02694057 160.25558328 241.7172562 160.12683252 237.46026611 160.13130188 C236.79293921 160.13341759 236.12561231 160.13553331 235.43806338 160.13771313 C233.19729929 160.14371448 230.95659148 160.14271288 228.71582031 160.1418457 C227.11099146 160.14487715 225.50616346 160.14839856 223.90133667 160.15237427 C220.44243524 160.16026537 216.98354414 160.16540901 213.52463531 160.16866493 C208.05323631 160.17457403 202.5819024 160.19111386 197.11053467 160.21000671 C195.23740009 160.21634421 193.36426548 160.22266983 191.49113083 160.22898388 C190.08394924 160.2337326 190.08394924 160.2337326 188.64833975 160.23857725 C175.90945161 160.28065215 163.17059361 160.3136255 150.43164062 160.32592773 C141.84035096 160.33430978 133.24922225 160.35680635 124.65801311 160.3952834 C120.11212575 160.41504033 115.56647899 160.42744988 111.02054596 160.42244911 C106.7424182 160.41780034 102.46474625 160.4316204 98.18671036 160.45946121 C96.6190325 160.46636931 95.05130748 160.46650362 93.48363113 160.45926094 C82.53685666 160.23593126 82.53685666 160.23593126 73 165 C70.12517532 168.09097691 69.10186395 171.29968533 68.5 175.4375 C69.3241404 181.30950033 70.91773989 185.33145571 75.60108948 189.08428955 C81.72780667 192.45665669 89.14277494 191.57001136 95.94116211 191.54589844 C97.56779974 191.5546396 99.19442879 191.56512728 100.82104492 191.57722473 C105.22345126 191.605039 109.62557638 191.60849043 114.02805781 191.60750484 C118.63388636 191.61063788 123.23958899 191.63626424 127.84535217 191.65948486 C136.56098695 191.70001845 145.27654696 191.72037937 153.99226147 191.73345876 C163.91733221 191.74933774 173.84227587 191.78775717 183.76727283 191.82805204 C204.17813995 191.91041484 224.58900105 191.96452958 245 192 C245 192.33 245 192.66 245 193 C218.02782436 193.02332559 191.05565022 193.0409775 164.08346653 193.05181217 C151.56076788 193.05697585 139.03807549 193.06401992 126.51538086 193.07543945 C115.6048906 193.08538409 104.69440488 193.0918529 93.78391021 193.09408849 C88.00302981 193.09539598 82.22216236 193.09848419 76.44128609 193.10573006 C71.00692136 193.1124868 65.57257501 193.11461767 60.13820648 193.11310768 C58.13744189 193.11338417 56.13667673 193.11539133 54.13591576 193.11920547 C51.41684581 193.12413733 48.6978464 193.12300018 45.97877502 193.12025452 C44.77500484 193.12462378 44.77500484 193.12462378 43.54691607 193.12908131 C38.11412121 193.11412121 38.11412121 193.11412121 37 192 C36.55369041 189.98187936 36.16303863 187.95145134 35.79296875 185.91796875 C35.53963681 184.54653358 35.28621332 183.17511533 35.03271484 181.80371094 C34.89613464 181.0569812 34.75955444 180.31025146 34.61883545 179.54089355 C31.23380586 161.07195755 27.5698861 142.65889152 23.875 124.25 C23.62164886 122.98715179 23.36829773 121.72430359 23.10726929 120.42318726 C21.87236231 114.26921836 20.63588986 108.11556662 19.39819336 101.9621582 C18.51486032 97.56824043 17.63499681 93.1736634 16.76000977 88.77807617 C14.57545473 77.8065522 12.35829825 66.84226668 10.10314178 55.88505173 C9.23526955 51.66603693 8.37022877 47.44644022 7.50497055 43.22688866 C6.76603824 39.625024 6.02484786 36.02364712 5.27954102 32.4230957 C4.54246136 28.86158508 3.8111288 25.29893721 3.08367348 21.73544884 C2.67778086 19.75490911 2.26586709 17.77560639 1.85380554 15.79634094 C1.60967422 14.59615829 1.36554291 13.39597565 1.11401367 12.15942383 C0.89815109 11.11119949 0.68228851 10.06297516 0.45988464 8.98298645 C0 6 0 6 0 0 Z " fill="#B3F68C" transform="translate(161,144)"/>
<path d="M0 0 C0.6930574 -0.0049649 1.38611481 -0.00992981 2.10017395 -0.01504517 C4.39255773 -0.02964735 6.68487228 -0.03646588 8.97729492 -0.04199219 C10.57289125 -0.0477457 12.16848756 -0.05350341 13.76408386 -0.05926514 C17.11062949 -0.06976991 20.45715114 -0.07561585 23.80371094 -0.07910156 C28.08428318 -0.08458206 32.36453666 -0.10860259 36.64500904 -0.13707352 C39.9419191 -0.15573209 43.2387529 -0.16090723 46.53571129 -0.16243744 C48.11331612 -0.16545776 49.69091981 -0.17346532 51.26847267 -0.18662262 C53.48000691 -0.20374934 55.69076942 -0.20178707 57.90234375 -0.1953125 C59.15904373 -0.19895813 60.41574371 -0.20260376 61.71052551 -0.20635986 C66.13339111 0.26685546 69.52043803 1.64437158 72.78979492 4.69628906 C77.52986793 10.89484608 78.01997092 15.38816616 77.14526367 23.16113281 C74.93675322 28.62529228 71.48051806 30.87288239 66.14526367 33.16113281 C62.66824341 33.55554199 62.66824341 33.55554199 58.7980957 33.58105469 C58.08830566 33.58952423 57.37851563 33.59799377 56.6472168 33.60671997 C54.31565109 33.62999689 51.98474898 33.63111435 49.65307617 33.62988281 C48.0217157 33.63699048 46.39035771 33.64469036 44.75900269 33.6529541 C41.34455411 33.66637784 37.93033667 33.66797742 34.51586914 33.66210938 C30.15568498 33.65621778 25.79661605 33.6867912 21.43664742 33.72722626 C18.06841126 33.75316782 14.70044126 33.75597483 11.33211899 33.75233459 C9.72545445 33.75402009 8.11877687 33.76360739 6.51221085 33.78147888 C-9.88592713 33.94381836 -9.88592713 33.94381836 -15.85473633 28.16113281 C-19.48567743 23.66739383 -19.35707726 19.62569473 -19.20629883 14.04003906 C-18.56901348 8.82138013 -16.06442266 6.25280097 -12.29223633 2.84863281 C-8.17218282 -0.00371192 -4.90105188 0.02667946 0 0 Z " fill="#1A1463" transform="translate(66.854736328125,345.8388671875)"/>
<path d="M0 0 C1.19521774 -0.01283524 2.39043549 -0.02567047 3.62187195 -0.03889465 C4.91559219 -0.04628159 6.20931244 -0.05366852 7.54223633 -0.0612793 C8.53261115 -0.06739259 8.53261115 -0.06739259 9.54299355 -0.07362938 C13.04054066 -0.09447526 16.53804877 -0.10878099 20.03564453 -0.11816406 C23.63234932 -0.12920063 27.22843068 -0.16357168 30.82491589 -0.20333576 C33.6037758 -0.22960074 36.38248969 -0.23786476 39.16146278 -0.24144554 C41.12670866 -0.24863111 43.09185432 -0.27503078 45.05693054 -0.30183411 C52.2418269 -0.28447633 57.13431604 0.1776661 63.18676758 4.17700195 C67.35591415 9.41516046 68.73404182 13.50025617 68.18676758 20.17700195 C66.37684146 25.44939543 63.95224376 29.12220953 59.18676758 32.17700195 C55.96541939 33.25078468 53.5787905 33.32983067 50.18994141 33.36987305 C48.95468216 33.38593597 47.71942291 33.4019989 46.44673157 33.41854858 C45.09576103 33.43003855 43.74478274 33.44064667 42.39379883 33.45043945 C41.71148382 33.45576313 41.02916882 33.46108681 40.3261776 33.46657181 C36.71192932 33.49328017 33.09771525 33.51265907 29.48339844 33.52709961 C26.50261588 33.54041537 23.52252174 33.56822548 20.54199219 33.60913086 C16.93337459 33.65864813 13.32537916 33.68324384 9.71643639 33.69032669 C8.34697359 33.69700854 6.97752299 33.71215035 5.60825539 33.7362175 C-2.38262741 33.86861471 -8.70059778 33.7756119 -14.81323242 28.17700195 C-18.44417352 23.68326297 -18.31557336 19.64156387 -18.16479492 14.0559082 C-17.52750957 8.83724927 -15.02291875 6.26867011 -11.25073242 2.86450195 C-7.44454537 0.22944938 -4.51860249 0.04224851 0 0 Z " fill="#1A1364" transform="translate(65.813232421875,217.822998046875)"/>
<path d="M0 0 C0.97498947 -0.01283524 1.94997894 -0.02567047 2.95451355 -0.03889465 C4.53417656 -0.04997505 4.53417656 -0.04997505 6.14575195 -0.0612793 C7.23233597 -0.06935104 8.31891998 -0.07742279 9.43843079 -0.08573914 C11.74083868 -0.09957692 14.04326707 -0.11030044 16.34570312 -0.11816406 C19.85302071 -0.13534612 23.35938815 -0.17923273 26.86645508 -0.22338867 C29.10538045 -0.23351856 31.34431383 -0.24203373 33.58325195 -0.2487793 C34.62623947 -0.26628738 35.66922699 -0.28379547 36.74382019 -0.30183411 C43.01211174 -0.28332459 48.0390942 0.39287412 53.1965332 4.17700195 C57.36567977 9.41516046 58.74380745 13.50025617 58.1965332 20.17700195 C56.38660709 25.44939543 53.96200939 29.12220953 49.1965332 32.17700195 C46.23690781 33.16354375 44.26641963 33.31467627 41.17773438 33.33813477 C40.15624802 33.34774231 39.13476166 33.35734985 38.08232117 33.36724854 C36.42762566 33.37362335 36.42762566 33.37362335 34.73950195 33.38012695 C33.6037825 33.38582703 32.46806305 33.3915271 31.29792786 33.3973999 C28.89296399 33.40685149 26.48798717 33.41338451 24.08300781 33.41723633 C20.40903032 33.42693596 16.73561361 33.45795622 13.06176758 33.48950195 C10.72518236 33.49603267 8.38859314 33.50128287 6.05200195 33.50512695 C4.95494431 33.51747375 3.85788666 33.52982056 2.72758484 33.5425415 C-2.85424744 33.52629266 -7.02673871 33.4175374 -11.8034668 30.17700195 C-15.68795477 26.07670909 -17.54417287 22.4674316 -18.1784668 16.86450195 C-17.71181918 12.27580035 -16.47561253 8.93598372 -13.8034668 5.17700195 C-9.28557923 1.58113226 -5.72069647 0.0656779 0 0 Z " fill="#1B1363" transform="translate(43.803466796875,281.822998046875)"/>
<path d="M0 0 C0.97498947 -0.01283524 1.94997894 -0.02567047 2.95451355 -0.03889465 C4.53417656 -0.04997505 4.53417656 -0.04997505 6.14575195 -0.0612793 C7.23233597 -0.06935104 8.31891998 -0.07742279 9.43843079 -0.08573914 C11.74083868 -0.09957692 14.04326707 -0.11030044 16.34570312 -0.11816406 C19.85302071 -0.13534612 23.35938815 -0.17923273 26.86645508 -0.22338867 C29.10538045 -0.23351856 31.34431383 -0.24203373 33.58325195 -0.2487793 C34.62623947 -0.26628738 35.66922699 -0.28379547 36.74382019 -0.30183411 C43.01211174 -0.28332459 48.0390942 0.39287412 53.1965332 4.17700195 C57.36567977 9.41516046 58.74380745 13.50025617 58.1965332 20.17700195 C56.38660709 25.44939543 53.96200939 29.12220953 49.1965332 32.17700195 C46.23690781 33.16354375 44.26641963 33.31467627 41.17773438 33.33813477 C40.15624802 33.34774231 39.13476166 33.35734985 38.08232117 33.36724854 C36.42762566 33.37362335 36.42762566 33.37362335 34.73950195 33.38012695 C33.6037825 33.38582703 32.46806305 33.3915271 31.29792786 33.3973999 C28.89296399 33.40685149 26.48798717 33.41338451 24.08300781 33.41723633 C20.40903032 33.42693596 16.73561361 33.45795622 13.06176758 33.48950195 C10.72518236 33.49603267 8.38859314 33.50128287 6.05200195 33.50512695 C4.95494431 33.51747375 3.85788666 33.52982056 2.72758484 33.5425415 C-2.85424744 33.52629266 -7.02673871 33.4175374 -11.8034668 30.17700195 C-15.68795477 26.07670909 -17.54417287 22.4674316 -18.1784668 16.86450195 C-17.71181918 12.27580035 -16.47561253 8.93598372 -13.8034668 5.17700195 C-9.28557923 1.58113226 -5.72069647 0.0656779 0 0 Z " fill="#1B1363" transform="translate(43.803466796875,153.822998046875)"/>
<path d="M0 0 C3.88446678 2.58964452 6.69907021 5.64814041 8.8125 9.875 C9.35610446 14.82982094 9.37687074 18.74625852 7.125 23.25 C4.0627707 26.72604407 0.71171093 30.45395277 -4.0703125 31.1484375 C-9.42629003 31.39104275 -13.0469329 30.6083049 -17.45703125 27.4921875 C-21.42308289 23.78576453 -22.90321852 19.64386254 -23.75 14.375 C-22.89547065 9.05792849 -20.6728342 5.02855415 -16.578125 1.48046875 C-11.09476493 -2.07868469 -6.0638073 -2.14016728 0 0 Z " fill="#B0F28C" transform="translate(380.1875,401.125)"/>
<path d="M0 0 C4.49174728 1.75422004 7.88361287 4.30812456 10.5 8.375 C12.41602523 13.00539431 12.85494812 16.20538833 11.375 21.04296875 C9.3699411 25.81393481 6.74969493 28.66113128 2.21484375 31.15234375 C-1.60185684 32.61305632 -5.00230244 32.79508111 -9 32 C-13.47803406 29.76098297 -17.7781931 26.60434025 -20 22 C-20.91126892 16.68294394 -20.69813975 12.42213653 -18.3125 7.5625 C-12.69994559 1.34318295 -8.33142184 -1.15603461 0 0 Z " fill="#B1F28C" transform="translate(239,400)"/>
</svg>
